# xmcd
#
# Track frame offsets: 
#        150
#        14132
#        25794
#        39007
#        50095
#        62200
#        73612
#        85262
#        97712
#        108277
#        120982
#        134802
#        147472
#        162432
#
# Disc length: 2319 seconds
#
# Revision: 0
# Processed by: cddbd v1.4PL0 Copyright (c) Steve Scherf et al.
# Submitted via: ExactAudioCopy v0.90b4
#
DISCID=c0090d0e
DTITLE=Ray Charles - Confession Blues [CD2)
DYEAR=2001
DGENRE=Blues
TTITLE0=Kissa Me Baby
TTITLE1=How Long Blues
TTITLE2=Alone In The City
TTITLE3=A Sentimental Blues
TTITLE4=I've Had My Fun
TTITLE5=She's On The Ball
TTITLE6=What Have I Done
TTITLE7=I'm Glad For Your Sake
TTITLE8=Hey Now
TTITLE9=The Snow Is Falling
TTITLE10=Someday
TTITLE11=Blues Before Sunrise
TTITLE12=I'm Wondering And Wondering
TTITLE13=Back Home
EXTD=
EXTT0=
EXTT1=
EXTT2=
EXTT3=
EXTT4=
EXTT5=
EXTT6=
EXTT7=
EXTT8=
EXTT9=
EXTT10=
EXTT11=
EXTT12=
EXTT13=
PLAYORDER=
